<svg width="136" height="39" viewBox="0 0 136 39" fill="none" xmlns="http://www.w3.org/2000/svg">
<path d="M36.9742 30.9048V9.90478H43.6342C44.5942 9.90478 45.4692 10.0998 46.2592 10.4898C47.0492 10.8698 47.6792 11.4398 48.1492 12.1998C48.6192 12.9498 48.8542 13.8798 48.8542 14.9898C48.8542 15.7298 48.7092 16.4148 48.4192 17.0448C48.1292 17.6648 47.7742 18.1748 47.3542 18.5748C46.9342 18.9748 46.5342 19.2048 46.1542 19.2648C46.7542 19.4348 47.2892 19.7048 47.7592 20.0748C48.2392 20.4448 48.6492 20.8898 48.9892 21.4098C49.3292 21.9198 49.5842 22.4698 49.7542 23.0598C49.9342 23.6498 50.0242 24.2548 50.0242 24.8748C50.0242 26.1248 49.7792 27.1998 49.2892 28.0998C48.7992 28.9998 48.1442 29.6948 47.3242 30.1848C46.5142 30.6648 45.6142 30.9048 44.6242 30.9048H36.9742ZM37.8742 30.0048H44.6242C45.4542 30.0048 46.2092 29.7848 46.8892 29.3448C47.5692 28.8948 48.1092 28.2848 48.5092 27.5148C48.9192 26.7348 49.1242 25.8548 49.1242 24.8748C49.1242 23.9948 48.9192 23.1698 48.5092 22.3998C48.1092 21.6298 47.5692 21.0048 46.8892 20.5248C46.2092 20.0448 45.4542 19.8048 44.6242 19.8048H37.8742V30.0048ZM37.8742 18.9048H43.6342C44.8242 18.9048 45.8392 18.5698 46.6792 17.8998C47.5292 17.2298 47.9542 16.2598 47.9542 14.9898C47.9542 13.5598 47.5292 12.5048 46.6792 11.8248C45.8392 11.1448 44.8242 10.8048 43.6342 10.8048H37.8742V18.9048ZM53.0289 30.9048V8.40478H53.9289V30.9048H53.0289ZM64.1406 31.2948C62.7606 31.2948 61.5006 30.9398 60.3606 30.2298C59.2306 29.5198 58.3256 28.5698 57.6456 27.3798C56.9756 26.1798 56.6406 24.8548 56.6406 23.4048C56.6406 22.3048 56.8356 21.2798 57.2256 20.3298C57.6156 19.3698 58.1506 18.5298 58.8306 17.8098C59.5206 17.0798 60.3206 16.5098 61.2306 16.0998C62.1406 15.6898 63.1106 15.4848 64.1406 15.4848C65.5206 15.4848 66.7756 15.8398 67.9056 16.5498C69.0456 17.2598 69.9506 18.2148 70.6206 19.4148C71.3006 20.6148 71.6406 21.9448 71.6406 23.4048C71.6406 24.4948 71.4456 25.5148 71.0556 26.4648C70.6656 27.4148 70.1256 28.2548 69.4356 28.9848C68.7556 29.7048 67.9606 30.2698 67.0506 30.6798C66.1506 31.0898 65.1806 31.2948 64.1406 31.2948ZM64.1406 30.3948C65.3806 30.3948 66.4956 30.0748 67.4856 29.4348C68.4856 28.7848 69.2756 27.9298 69.8556 26.8698C70.4456 25.8098 70.7406 24.6548 70.7406 23.4048C70.7406 22.1448 70.4456 20.9848 69.8556 19.9248C69.2756 18.8548 68.4856 17.9998 67.4856 17.3598C66.4956 16.7098 65.3806 16.3848 64.1406 16.3848C62.8906 16.3848 61.7656 16.7098 60.7656 17.3598C59.7756 17.9998 58.9906 18.8548 58.4106 19.9248C57.8306 20.9848 57.5406 22.1448 57.5406 23.4048C57.5406 24.7048 57.8406 25.8848 58.4406 26.9448C59.0406 27.9948 59.8406 28.8348 60.8406 29.4648C61.8406 30.0848 62.9406 30.3948 64.1406 30.3948ZM80.6347 31.2948C79.2547 31.2948 77.9947 30.9398 76.8547 30.2298C75.7247 29.5198 74.8197 28.5698 74.1397 27.3798C73.4697 26.1798 73.1347 24.8548 73.1347 23.4048C73.1347 22.3048 73.3297 21.2798 73.7197 20.3298C74.1097 19.3698 74.6447 18.5298 75.3247 17.8098C76.0147 17.0798 76.8147 16.5098 77.7247 16.0998C78.6347 15.6898 79.6047 15.4848 80.6347 15.4848C82.0147 15.4848 83.2697 15.8398 84.3997 16.5498C85.5397 17.2598 86.4447 18.2148 87.1147 19.4148C87.7947 20.6148 88.1347 21.9448 88.1347 23.4048C88.1347 24.4948 87.9397 25.5148 87.5497 26.4648C87.1597 27.4148 86.6197 28.2548 85.9297 28.9848C85.2497 29.7048 84.4547 30.2698 83.5447 30.6798C82.6447 31.0898 81.6747 31.2948 80.6347 31.2948ZM80.6347 30.3948C81.8747 30.3948 82.9897 30.0748 83.9797 29.4348C84.9797 28.7848 85.7697 27.9298 86.3497 26.8698C86.9397 25.8098 87.2347 24.6548 87.2347 23.4048C87.2347 22.1448 86.9397 20.9848 86.3497 19.9248C85.7697 18.8548 84.9797 17.9998 83.9797 17.3598C82.9897 16.7098 81.8747 16.3848 80.6347 16.3848C79.3847 16.3848 78.2597 16.7098 77.2597 17.3598C76.2697 17.9998 75.4847 18.8548 74.9047 19.9248C74.3247 20.9848 74.0347 22.1448 74.0347 23.4048C74.0347 24.7048 74.3347 25.8848 74.9347 26.9448C75.5347 27.9948 76.3347 28.8348 77.3347 29.4648C78.3347 30.0848 79.4347 30.3948 80.6347 30.3948ZM90.8219 30.9048V15.9048H91.7219V18.5298C92.2819 17.6098 93.0319 16.8748 93.9719 16.3248C94.9219 15.7648 95.9669 15.4848 97.1069 15.4848C98.3069 15.4848 99.3969 15.7898 100.377 16.3998C101.367 17.0098 102.127 17.8098 102.657 18.7998C103.187 17.8098 103.942 17.0098 104.922 16.3998C105.902 15.7898 106.992 15.4848 108.192 15.4848C109.352 15.4848 110.407 15.7698 111.357 16.3398C112.307 16.8998 113.062 17.6548 113.622 18.6048C114.192 19.5548 114.477 20.6098 114.477 21.7698V30.9048H113.577V21.8298C113.577 20.8598 113.342 19.9648 112.872 19.1448C112.402 18.3148 111.772 17.6498 110.982 17.1498C110.192 16.6398 109.312 16.3848 108.342 16.3848C107.382 16.3848 106.502 16.6198 105.702 17.0898C104.912 17.5498 104.282 18.1898 103.812 19.0098C103.342 19.8198 103.107 20.7598 103.107 21.8298V30.9048H102.207V21.8298C102.207 20.7598 101.967 19.8198 101.487 19.0098C101.017 18.1898 100.387 17.5498 99.5969 17.0898C98.8069 16.6198 97.9269 16.3848 96.9569 16.3848C95.9969 16.3848 95.1219 16.6398 94.3319 17.1498C93.5419 17.6498 92.9069 18.3148 92.4269 19.1448C91.9569 19.9648 91.7219 20.8598 91.7219 21.8298V30.9048H90.8219ZM117.775 30.9048V8.40478H118.675V30.9048H117.775ZM132.547 15.9048H133.477L125.287 38.4048H124.327L127.057 30.9048L121.687 15.9048H122.677L127.507 29.6448L132.547 15.9048Z" fill="black"/>
<path d="M5.7368 0.352373H8.35578C8.65509 0.352376 8.81306 2.26464 8.85464 3.22077C8.85464 4.21848 9.18721 5.29933 9.35349 5.71504C9.35349 6.01435 9.60292 6.08918 9.72763 6.08918C10.0269 6.08918 10.1018 5.83975 10.1018 5.71504C10.1018 5.41573 10.2681 4.84204 10.3512 4.59262C10.85 3.59491 10.8916 2.59721 10.85 2.22307C10.9498 1.22536 10.1433 0.393943 9.72763 0.102947C9.72763 -0.196365 10.9748 0.22766 11.5983 0.477086C12.2967 0.676627 12.6376 1.14222 12.7207 1.35008C12.8205 1.44985 12.8455 2.55564 12.8455 3.09606C12.8455 5.39079 12.5129 7.2116 12.3466 7.83516C11.9475 9.03241 12.2635 9.66429 12.4713 9.83058C13.0699 10.1299 13.6353 8.7913 13.8432 8.08459L14.7162 4.71733C14.9157 3.71963 14.4667 1.97364 14.2173 1.22537C14.2173 1.02582 14.4667 1.14222 14.5914 1.22537L15.215 1.5995C15.5143 1.89882 16.5037 2.4725 16.961 2.72192C18.258 3.42032 18.5823 4.67576 18.5823 5.21619C18.5823 6.41343 17.6677 8.37559 17.2104 9.20701L14.7162 13.8214C14.1175 14.6196 14.3836 15.0685 14.5914 15.1932C14.9905 15.5923 15.7554 14.9438 16.088 14.5697C16.4871 14.2704 17.7508 11.3687 18.3328 9.95529C19.2308 7.26148 20.0373 5.75661 20.3283 5.3409C20.428 5.04159 20.9518 5.54876 21.2012 5.83975L22.9472 8.33402C23.3463 8.7331 23.1135 9.58115 22.9472 9.95529L22.5731 10.8283L21.0765 13.9461C20.7772 14.5447 19.7878 15.7752 19.3305 16.3157L18.3328 17.5628C17.4349 18.4607 17.2936 19.0178 17.3351 19.1841C17.3351 19.4834 18.1666 18.7268 18.5823 18.3111C18.9813 17.912 20.5777 16.3988 21.326 15.6921L22.0742 14.8191C22.6562 14.0293 23.9699 12.1752 24.5685 11.0777C25.1671 9.98023 25.4831 9.87215 25.5662 9.95529C25.4664 10.2546 26.0235 11.7428 26.3145 12.4496L27.0628 14.445C27.6614 15.9415 25.9819 17.3134 25.0674 17.8122L21.4507 20.3065L20.3283 21.0548C19.131 21.7532 18.9148 22.094 18.9564 22.1772C19.0562 22.3767 20.0788 21.9278 20.5777 21.6783C21.3758 21.1795 22.4068 20.7222 22.8225 20.5559C24.0198 20.2566 25.6493 18.8515 26.3145 18.1864C26.9131 17.5877 27.4785 16.5235 27.6863 16.0662C27.7861 15.9665 27.9773 16.1909 28.0605 16.3157C28.6591 17.1138 28.7256 19.2256 28.684 20.1818C28.684 21.8779 27.6032 22.7176 27.0628 22.9255C26.0651 23.5241 24.2359 23.9232 23.4461 24.0479C21.6502 24.3472 21.2012 24.7546 21.2012 24.9209C21.301 25.2202 21.8248 25.295 22.0742 25.295C23.7703 25.3948 26.7718 24.1726 28.0605 23.549C28.5593 23.2497 28.684 23.4243 28.684 23.549C28.5843 25.3449 27.0628 27.2904 26.3145 28.0387C25.9154 28.338 25.4831 28.3297 25.3168 28.2881C23.6207 27.889 22.5315 27.7893 22.1989 27.7893C21.0017 27.7893 20.7855 28.1218 20.8271 28.2881C21.0266 28.6872 22.5731 28.9533 23.3214 29.0364C24.1195 29.4355 24.9011 29.2027 25.1921 29.0364C25.8905 28.6373 26.0651 28.787 26.0651 28.9117C26.1648 29.4105 25.0258 30.533 24.4438 31.0318C22.3486 32.5284 20.4114 32.8194 19.7047 32.7778C17.7093 32.678 16.6284 30.824 16.3374 29.9094L16.088 29.0364C16.088 28.338 15.7554 27.914 15.5891 27.7893C14.9905 27.3902 15.0903 28.2881 15.215 28.787C15.4145 29.4854 15.4644 30.4083 15.4644 30.7824C15.3397 31.7801 14.2173 33.5261 11.5983 33.6508H10.85C8.6551 33.4513 8.10636 32.3205 8.10636 31.7801C8.10636 31.2812 8.43893 31.406 8.60521 31.5307C8.80475 31.7302 9.35349 31.7801 9.60292 31.7801C10.1018 31.7801 10.559 31.3644 10.7253 31.1565L11.3489 30.2835C11.748 29.7847 11.5983 29.4937 11.4736 29.4105C11.2741 29.211 10.8916 29.4937 10.7253 29.66L9.85234 30.533C9.15395 31.2314 8.39736 31.2397 8.10636 31.1565C6.01118 30.6577 4.48968 29.369 3.99082 28.787C3.59174 28.3879 3.49197 28.0387 3.49197 27.914C3.69151 27.8142 3.99082 27.9556 4.11554 28.0387C4.61439 28.338 5.48738 28.3297 5.86152 28.2881C7.35808 28.0886 9.22878 27.1241 9.97706 26.6669C10.4759 26.3675 10.1018 26.459 9.85234 26.5421L7.35808 27.2904C6.65968 27.5897 5.57052 27.6646 5.11324 27.6646C2.81852 27.6646 1.49656 25.5029 1.12242 24.422L0.623566 23.4243C0.249426 22.9255 0.748279 22.9255 0.872992 22.9255C0.972763 22.9255 3.32569 23.258 4.48968 23.4243C7.38302 23.8234 9.68606 23.258 10.4759 22.9255C10.3761 22.4266 7.77379 22.5513 6.48509 22.676C4.98853 22.9753 3.61668 22.7176 3.11783 22.5513C1.02265 22.1522 0.415711 20.4728 0.37414 19.6829C0.37414 18.8848 0.290997 17.9369 0.249426 17.5628C-0.124713 15.9415 0 15.4427 0.124713 15.4427C0.224484 15.3429 0.581995 15.7337 0.748279 15.9415C1.44667 16.8395 2.8684 17.4797 3.49197 17.6875L5.11324 18.3111C8.00659 19.4085 9.35349 19.4335 9.60292 19.0594C9.40338 18.2612 7.35808 17.7291 6.36037 17.5628C5.66198 17.463 4.40653 17.1055 3.86611 16.9392C0.97276 15.9415 0.415708 14.7775 0.49885 14.3203V13.4473C0.49885 12.25 0.831418 10.7867 0.997703 10.2047C1.09747 9.70586 1.2887 9.58115 1.37184 9.58115C1.57138 9.58115 1.70441 9.99686 1.74598 10.2047C1.99541 11.2024 2.82683 11.535 3.36725 11.826L6.11094 13.4473C8.50544 14.844 9.02092 14.6112 8.97935 14.3203C9.17889 13.4223 5.48738 11.535 3.61668 10.7036C2.02035 10.1049 1.70441 8.87444 1.74598 8.33402C1.74598 7.83516 1.91226 7.29474 1.99541 7.08688C2.39449 6.08918 3.1594 5.00833 3.49197 4.59262C3.79128 4.39308 3.8661 4.59262 3.8661 4.71733L3.86611 5.59033C3.8661 6.58803 4.86381 7.33631 5.36266 7.83516C6.48508 8.95758 7.23336 8.99915 7.48279 8.83287C7.7821 8.23425 7.02551 7.25317 6.6098 6.83746L5.23795 5.3409C4.53956 4.64251 4.36496 3.88591 4.36496 3.59492C4.46473 3.09606 4.7391 2.63878 4.86381 2.4725C5.36266 1.67433 5.23795 0.809655 5.11324 0.477086C5.21301 0.377316 5.57052 0.352373 5.7368 0.352373Z" fill="url(#paint0_linear_30_2)"/>
<path d="M15.4645 16.1908C14.2673 16.5899 13.968 17.3548 13.968 17.6874C13.968 17.8869 14.2174 17.8537 14.3421 17.8121C14.841 17.6126 15.3814 16.8975 15.5892 16.565C15.7888 16.1659 15.5892 16.1493 15.4645 16.1908Z" fill="white"/>
<path d="M11.2243 16.3155C10.8252 15.8167 10.1434 15.6088 9.85242 15.5673C9.55311 15.5673 9.56143 15.7335 9.603 15.8167C10.1019 16.3155 10.7254 16.5234 10.9748 16.565C11.2742 16.565 11.2658 16.3987 11.2243 16.3155Z" fill="white"/>
<path d="M12.7208 11.5764C12.7208 11.1774 12.4714 11.1607 12.3467 11.2023C11.6483 11.4018 11.64 12.2831 11.7231 12.6989C11.8229 12.8984 12.0141 12.8651 12.0973 12.8236C12.5961 12.5243 12.7208 11.8674 12.7208 11.5764Z" fill="white"/>
<path d="M17.3983 22.9254C16.6001 22.9254 16.1512 23.3412 16.0265 23.549C15.9267 23.6736 15.9849 23.8504 16.0265 23.9232C16.1262 24.1227 16.4006 24.0063 16.5253 23.9232L17.2736 23.2996C17.6727 23.0003 17.523 22.9254 17.3983 22.9254Z" fill="white"/>
<path d="M15.6523 21.1795L15.0288 21.803C14.7294 22.0026 14.6546 21.7199 14.6546 21.5536C14.6546 20.8552 15.2366 20.7638 15.5276 20.8053C15.8269 20.9051 15.7355 21.0963 15.6523 21.1795Z" fill="white"/>
<path d="M12.6592 20.3065C12.3599 20.0072 11.8694 19.8492 11.6615 19.8076C11.2624 19.8076 11.3289 20.057 11.4121 20.1818C11.7114 20.6806 12.2851 20.7222 12.5345 20.6806C12.8338 20.5808 12.7423 20.3896 12.6592 20.3065Z" fill="white"/>
<defs>
<linearGradient id="paint0_linear_30_2" x1="14.347" y1="0" x2="14.347" y2="33.6508" gradientUnits="userSpaceOnUse">
<stop stop-color="#91B58E"/>
<stop offset="0.875" stop-color="#1D7427"/>
</linearGradient>
</defs>
</svg>
